<svg width="100" height="100" viewBox="0 0 100 100" fill="none" xmlns="http://www.w3.org/2000/svg">
<g clip-path="url(#clip0_758_20)">
<rect width="100" height="100" rx="15.3846" fill="url(#paint0_linear_758_20)"/>
<path fill-rule="evenodd" clip-rule="evenodd" d="M53.8314 8.16699C53.8096 8.52142 53.7637 8.86092 53.697 9.17873L56.6185 13.4614L60.5541 17.3075L62.5219 24.9998L60.5541 28.846L56.6185 36.5383L58.5863 51.9229L62.5219 67.3075L76.2965 73.0767V78.846L72.3609 84.6152H33.0049H23.0765C23.0765 85.3656 22.969 86.0658 22.7832 86.6576L52.6829 103.846H103.846V28.846L53.8314 8.16699Z" fill="black" fill-opacity="0.2"/>
<path d="M63.4618 67.4209L56.731 37.3304C60.7695 35.1037 63.4618 29.2189 63.4618 24.4345C63.4618 21.0143 62.0435 17.7342 59.519 15.3157C56.9944 12.8972 53.5704 11.5386 50.0002 11.5386C46.43 11.5386 43.006 12.8972 40.4815 15.3157C37.9569 17.7342 36.5387 21.0143 36.5387 24.4345C36.5387 29.2189 39.231 35.1037 43.2695 37.3304L36.5387 67.4209M63.4618 67.4209H36.5387M63.4618 67.4209L73.8541 70.7395C74.7472 71.0245 75.5242 71.5713 76.075 72.3026C76.6258 73.034 76.9226 73.9128 76.9233 74.8146V80.3169C76.9233 81.4569 76.4505 82.5503 75.609 83.3565C74.7675 84.1626 73.6262 84.6155 72.4361 84.6155H27.5643C26.3743 84.6155 25.2329 84.1626 24.3914 83.3565C23.5499 82.5503 23.0771 81.4569 23.0771 80.3169V74.8189C23.0769 73.9163 23.3733 73.0366 23.9241 72.3044C24.475 71.5722 25.2525 71.0247 26.1464 70.7395L36.5387 67.4209M32.0515 37.3304H50.0002H67.9489" stroke="url(#paint1_linear_758_20)" stroke-width="7.69231" stroke-linecap="round" stroke-linejoin="round"/>
</g>
<defs>
<linearGradient id="paint0_linear_758_20" x1="106.25" y1="-2.08334" x2="-20.8333" y2="112.5" gradientUnits="userSpaceOnUse">
<stop stop-color="#FFD66D"/>
<stop offset="1" stop-color="#FDB600"/>
</linearGradient>
<linearGradient id="paint1_linear_758_20" x1="-8.33311" y1="106.109" x2="107.716" y2="-12.7874" gradientUnits="userSpaceOnUse">
<stop stop-color="#696969"/>
<stop offset="1"/>
</linearGradient>
<clipPath id="clip0_758_20">
<rect width="100" height="100" rx="15.3846" fill="white"/>
</clipPath>
</defs>
</svg>
